<?xml version="1.0" standalone="no"?>
<!DOCTYPE svg PUBLIC "-//W3C//DTD SVG 20010904//EN"
 "http://www.w3.org/TR/2001/REC-SVG-20010904/DTD/svg10.dtd">
<svg version="1.0" xmlns="http://www.w3.org/2000/svg"
 width="400.000000pt" height="400.000000pt" viewBox="0 0 400.000000 400.000000"
 preserveAspectRatio="xMidYMid meet">
<metadata>
Created by potrace 1.14, written by Peter Selinger 2001-2017
</metadata>
<g transform="translate(0.000000,400.000000) scale(0.100000,-0.100000)"
fill="#000000" stroke="none">
<path d="M2403 2553 c-9 -3 -13 -27 -13 -68 0 -72 -31 -301 -60 -444 -18 -89
-29 -110 -57 -111 -6 0 -23 -15 -38 -32 -26 -31 -27 -37 -22 -110 4 -67 2 -81
-14 -102 -24 -31 -70 -42 -99 -24 -11 7 -31 33 -43 58 -19 41 -21 61 -22 215
0 134 4 181 17 220 19 55 35 167 30 203 -4 24 -42 45 -66 36 -22 -8 -28 -39
-35 -179 -6 -118 -10 -134 -34 -175 -16 -25 -33 -54 -40 -65 -17 -29 -110
-115 -123 -115 -13 0 -59 280 -68 415 -13 169 -65 268 -125 235 -33 -17 -39
-39 -50 -171 -6 -68 -15 -160 -21 -204 -5 -44 -12 -111 -16 -148 l-6 -69 -47
7 c-88 12 -128 -52 -78 -126 20 -30 71 -72 98 -81 7 -2 6 -43 -5 -123 -17
-135 -11 -190 19 -190 16 0 21 14 36 105 10 58 18 124 18 146 l1 41 65 7 65 7
37 -42 c21 -23 42 -47 48 -54 17 -21 44 -25 59 -10 13 13 12 24 -5 85 -10 38
-19 74 -19 79 0 4 19 21 42 36 43 29 115 102 134 137 9 16 12 1 17 -78 10
-175 48 -252 133 -273 42 -11 49 -10 90 14 24 14 48 34 54 45 10 19 11 19 43
0 70 -41 178 -35 256 15 36 22 37 22 71 4 19 -10 49 -18 66 -19 40 0 100 25
113 47 10 17 12 17 26 -1 26 -34 69 -56 109 -56 31 0 45 7 75 37 32 32 41 36
79 34 40 -2 47 1 84 40 31 33 48 43 67 41 37 -4 98 24 117 53 l16 25 35 -30
c28 -25 42 -30 83 -30 27 0 52 5 56 12 4 7 13 -7 21 -33 18 -60 51 -82 131
-87 54 -4 82 2 178 33 l114 38 0 43 c0 24 -2 44 -4 44 -3 0 -40 -11 -83 -24
-126 -38 -159 -46 -187 -46 -37 0 -66 17 -66 38 0 10 32 67 71 127 39 60 73
124 76 141 8 49 -4 83 -31 90 -57 14 -155 -72 -227 -198 -57 -100 -66 -102
-94 -17 -14 42 -20 49 -43 49 -33 0 -60 -22 -95 -77 -15 -24 -32 -43 -37 -43
-6 0 -13 -1 -17 -2 -4 -2 -8 24 -8 57 0 56 -2 60 -28 69 -38 14 -54 -5 -66
-79 -10 -67 -37 -131 -58 -139 -16 -7 -18 61 -2 118 19 69 -19 119 -72 92 -28
-14 -37 -42 -38 -126 -1 -74 -15 -133 -35 -149 -40 -33 -76 42 -76 157 0 87
-16 122 -54 122 -38 0 -48 -22 -45 -102 3 -80 -3 -109 -33 -150 -13 -20 -28
-28 -48 -28 -40 0 -45 14 -21 63 32 65 35 100 16 141 -22 46 -56 56 -93 29
-32 -24 -50 -78 -51 -149 -1 -70 -23 -89 -40 -33 -7 22 -21 48 -32 57 -18 16
-19 32 -19 354 0 323 -1 338 -19 348 -11 5 -21 10 -23 9 -2 0 -9 -3 -15 -6z
m-768 -220 c27 -110 34 -144 45 -213 6 -36 17 -101 25 -145 30 -168 18 -189
-77 -125 -33 22 -65 40 -70 40 -10 0 -8 31 18 310 22 228 30 247 59 133z m770
-410 c-1 -1 -11 0 -24 4 -17 4 -21 11 -17 27 3 11 11 57 18 101 l13 80 5 -105
c3 -58 5 -106 5 -107z m-12 -107 c10 -8 21 -33 24 -55 5 -37 4 -41 -16 -41
-28 0 -81 27 -81 42 0 6 5 28 11 49 13 40 17 41 62 5z m-908 13 c11 -17 2 -18
-19 -3 -17 12 -17 14 -4 14 9 0 20 -5 23 -11z"/>
<path d="M640 2527 c-83 -30 -123 -51 -185 -97 -64 -47 -123 -113 -141 -156
-16 -38 -18 -102 -5 -136 14 -35 80 -96 112 -103 16 -4 29 -10 29 -13 0 -4
-28 -29 -61 -56 -76 -61 -151 -160 -180 -235 -16 -40 -22 -80 -23 -141 -1 -99
12 -131 71 -176 35 -27 44 -29 128 -29 61 0 103 5 130 16 132 55 181 77 280
124 206 99 227 107 300 112 94 7 130 38 88 75 -47 42 -95 32 -308 -62 -11 -5
-45 -19 -75 -30 -30 -12 -68 -27 -85 -35 -104 -46 -311 -99 -348 -90 -14 4
-35 17 -47 31 -49 51 -3 199 89 291 99 98 256 188 380 219 36 9 72 21 80 27
38 31 31 98 -12 118 -19 9 -41 6 -103 -11 -143 -40 -310 -27 -331 26 -12 32
86 138 163 177 70 36 161 60 224 61 101 1 130 -9 188 -64 54 -51 69 -57 103
-40 35 19 24 63 -28 117 -78 79 -118 95 -253 100 -102 3 -123 1 -180 -20z"/>
<path d="M3410 2310 c0 -5 -7 -10 -15 -10 -24 0 -65 -42 -64 -64 1 -20 2 -20
6 -1 3 11 13 25 22 32 22 17 76 16 91 -2 7 -8 16 -12 21 -9 5 3 9 -9 9 -27 0
-33 9 -35 14 -2 5 28 -22 73 -50 83 -32 12 -34 12 -34 0z"/>
<path d="M3341 2189 c-1 -17 5 -29 15 -33 13 -5 14 -3 6 6 -5 7 -12 22 -15 33
-4 16 -5 14 -6 -6z"/>
<path d="M3385 2150 c3 -5 8 -10 11 -10 2 0 4 5 4 10 0 6 -5 10 -11 10 -5 0
-7 -4 -4 -10z"/>
<path d="M1272 1742 c-22 -14 -26 -76 -7 -95 36 -36 95 -8 95 45 0 43 -52 73
-88 50z"/>
</g>
</svg>
